<svg xmlns="http://www.w3.org/2000/svg" viewBox="0 0 1088 698"><defs><style>.cls-1{fill:#ff3e35;}.cls-2{fill:#f9dee7;}</style></defs><title>africa</title><g id="Africa"><circle class="cls-1" cx="506.55" cy="367.65" r="12.84"/><circle class="cls-1" cx="531.93" cy="393.84" r="12.84"/><circle class="cls-1" cx="558.94" cy="367.65" r="12.84"/><circle class="cls-1" cx="574.64" cy="402.47" r="12.84"/><circle class="cls-1" cx="550.64" cy="428.28" r="12.84"/><circle class="cls-1" cx="463.21" cy="380.65" r="12.84"/><circle class="cls-1" cx="532.32" cy="463.58" r="12.84"/><circle class="cls-1" cx="563.05" cy="490.37" r="12.84"/><circle class="cls-1" cx="572.24" cy="458.58" r="12.84"/><circle class="cls-1" cx="561.36" cy="529.16" r="12.84"/><circle class="cls-1" cx="519.77" cy="428.47" r="12.84"/><circle class="cls-1" cx="597.51" cy="432.28" r="12.84"/><circle class="cls-1" cx="489.38" cy="399.49" r="12.84"/><circle class="cls-1" cx="476.23" cy="348.84" r="12.84"/><circle class="cls-1" cx="531.52" cy="509.84" r="12.84"/><circle class="cls-1" cx="445.84" cy="409.7" r="12.84"/></g><g id="limits"><rect class="cls-2" width="28" height="28"/><rect class="cls-2" y="670" width="28" height="28"/><rect class="cls-2" x="1060" width="28" height="28"/><rect class="cls-2" x="1060" y="670" width="28" height="28"/></g></svg>