<svg xmlns="http://www.w3.org/2000/svg" xmlns:xlink="http://www.w3.org/1999/xlink" viewBox="0 0 1088 698"><defs><style>.cls-1{fill:#ff3e35;}.cls-2{fill:#f9dee7;}</style></defs><title>asia</title><g id="Capa_1" data-name="Capa 1"><image width="1800" height="1094" transform="translate(34 47) scale(0.53 0.56)" xlink:href="../../../Documents/Universidad/3.%20curso/2.%20semestre/Grafica%20Multimedia%20Programaci%C3%B3n/04%20scrollitelling/imgs/contour-world-map.png"/></g><g id="Asia"><circle class="cls-1" cx="776.09" cy="357.63" r="12.57"/><circle class="cls-1" cx="749.48" cy="302.65" r="12.57"/><circle class="cls-1" cx="773.17" cy="276.13" r="12.57"/><circle class="cls-1" cx="786.87" cy="197.78" r="12.57"/><circle class="cls-1" cx="637.09" cy="281.78" r="12.57"/><circle class="cls-1" cx="597.04" cy="352.22" r="12.57"/><circle class="cls-1" cx="691.17" cy="299.65" r="12.57"/><circle class="cls-1" cx="807.57" cy="303" r="12.57"/><circle class="cls-1" cx="853.39" cy="305.96" r="12.57"/><circle class="cls-1" cx="856.74" cy="263.22" r="12.57"/><circle class="cls-1" cx="834.35" cy="226.04" r="12.57"/><circle class="cls-1" cx="680.61" cy="229.39" r="12.57"/><circle class="cls-1" cx="610.3" cy="323" r="12.57"/><circle class="cls-1" cx="776.26" cy="390.22" r="12.57"/><circle class="cls-1" cx="822.74" cy="247.04" r="12.57"/><circle class="cls-1" cx="689.96" cy="330.61" r="12.57"/><circle class="cls-1" cx="652.7" cy="335.78" r="12.57"/><circle class="cls-1" cx="726.26" cy="351.78" r="12.57"/><circle class="cls-1" cx="681.91" cy="357.7" r="12.57"/><circle class="cls-1" cx="681.91" cy="357.7" r="12.57"/><circle class="cls-1" cx="790.96" cy="333.78" r="12.57"/><circle class="cls-1" cx="745.48" cy="267.52" r="12.57"/><circle class="cls-1" cx="761.74" cy="218.74" r="12.57"/><circle class="cls-1" cx="719.35" cy="279.7" r="12.57"/><circle class="cls-1" cx="801.65" cy="269" r="12.57"/><circle class="cls-1" cx="831.09" cy="282" r="12.57"/><circle class="cls-1" cx="854.87" cy="198.04" r="12.57"/><circle class="cls-1" cx="817.91" cy="169.96" r="12.57"/><circle class="cls-1" cx="897.74" cy="196.57" r="12.57"/><circle class="cls-1" cx="752.57" cy="336.22" r="12.57"/><circle class="cls-1" cx="739.91" cy="238.13" r="12.57"/><circle class="cls-1" cx="719.74" cy="315.39" r="12.57"/><circle class="cls-1" cx="653.83" cy="218.74" r="12.57"/><circle class="cls-1" cx="620.96" cy="212.57" r="12.57"/><circle class="cls-1" cx="613.96" cy="386.57" r="12.57"/><circle class="cls-1" cx="700.83" cy="255.43" r="12.57"/><circle class="cls-1" cx="783.13" cy="161.78" r="12.57"/><circle class="cls-1" cx="820.17" cy="198.87" r="12.57"/><circle class="cls-1" cx="774.17" cy="248.83" r="12.57"/><circle class="cls-1" cx="659.87" cy="301.83" r="12.57"/><circle class="cls-1" cx="711.87" cy="222.04" r="12.57"/><circle class="cls-1" cx="735.35" cy="201.74" r="12.57"/><circle class="cls-1" cx="801.65" cy="227.61" r="12.57"/><circle class="cls-1" cx="742.57" cy="157.17" r="12.57"/><circle class="cls-1" cx="681.91" cy="135.96" r="12.57"/><circle class="cls-1" cx="624.26" cy="243.87" r="12.57"/><circle class="cls-1" cx="809.87" cy="134.96" r="12.57"/><circle class="cls-1" cx="803.78" cy="361.83" r="12.57"/><circle class="cls-1" cx="897.83" cy="132.04" r="12.57"/><circle class="cls-1" cx="778.83" cy="306.04" r="12.57"/><circle class="cls-1" cx="655.26" cy="250.43" r="12.57"/><circle class="cls-1" cx="710.43" cy="153.26" r="12.57"/><circle class="cls-1" cx="713.3" cy="377.22" r="12.57"/><circle class="cls-1" cx="711.43" cy="183.83" r="12.57"/><circle class="cls-1" cx="717.39" cy="122.65" r="12.57"/><circle class="cls-1" cx="682.17" cy="194.22" r="12.57"/><circle class="cls-1" cx="665.65" cy="165.52" r="12.57"/><circle class="cls-1" cx="636.09" cy="184.74" r="12.57"/><circle class="cls-1" cx="760.35" cy="181.22" r="12.57"/><circle class="cls-1" cx="840.09" cy="149.26" r="12.57"/><circle class="cls-1" cx="865.7" cy="165.7" r="12.57"/><circle class="cls-1" cx="897.74" cy="160.65" r="12.57"/><circle class="cls-1" cx="865.7" cy="135.65" r="12.57"/><circle class="cls-1" cx="678.35" cy="272.83" r="12.57"/></g><g id="limits"><rect class="cls-2" width="28" height="28"/><rect class="cls-2" y="670" width="28" height="28"/><rect class="cls-2" x="1060" width="28" height="28"/><rect class="cls-2" x="1060" y="670" width="28" height="28"/></g></svg>